<svg xmlns="http://www.w3.org/2000/svg" viewBox="0 0 1440 320" preserveAspectRatio="none">
  <path fill="#f6e05e" fill-opacity="1" d="M0,0L15,5.3C30,11,60,21,90,26.7C120,32,150,32,180,58.7C210,85,240,139,270,160C300,181,330,171,360,149.3C390,128,420,96,450,112C480,128,510,192,540,229.3C570,267,600,277,630,277.3C660,277,690,267,720,224C750,181,780,107,810,85.3C840,64,870,96,900,117.3C930,139,960,149,990,170.7C1020,192,1050,224,1080,224C1110,224,1140,192,1170,202.7C1200,213,1230,267,1260,293.3C1290,320,1320,320,1350,288C1380,256,1410,192,1425,160L1440,128L1440,0L1425,0C1410,0,1380,0,1350,0C1320,0,1290,0,1260,0C1230,0,1200,0,1170,0C1140,0,1110,0,1080,0C1050,0,1020,0,990,0C960,0,930,0,900,0C870,0,840,0,810,0C780,0,750,0,720,0C690,0,660,0,630,0C600,0,570,0,540,0C510,0,480,0,450,0C420,0,390,0,360,0C330,0,300,0,270,0C240,0,210,0,180,0C150,0,120,0,90,0C60,0,30,0,15,0L0,0Z"></path>
</svg>
